<svg xmlns="http://www.w3.org/2000/svg" xmlns:xlink="http://www.w3.org/1999/xlink" viewBox="0 0 166 230.9"><defs><style>.cls-1{fill:#2b2a2a;}.cls-2{fill:url(#linear-gradient);}.cls-3{fill:#3a3a3a;stroke:#9b9b9b;}.cls-3,.cls-4{stroke-miterlimit:10;}.cls-4{fill:#353535;stroke:#636363;}.cls-5{fill:#444343;}.cls-6{font-size:18px;fill:#fff;font-family:Impact, Impact;}</style><linearGradient id="linear-gradient" x1="82.63" y1="79.03" x2="83.29" y2="11.36" gradientUnits="userSpaceOnUse"><stop offset="0" stop-color="#fff"/><stop offset="1"/></linearGradient></defs><title>Asset 1</title><g id="Layer_2" data-name="Layer 2">
<g id="Layer_1-2" data-name="Layer 1"><path class="cls-1" d="M163.5,40.57c4,44,2,138,2,138s3,48-52,51c-12.49.68-20.79,1.05-26.18,1.22a33.71,33.71,0,0,1-4.32.1,33.71,33.71,0,0,1-4.32-.1c-5.39-.17-13.69-.54-26.18-1.22-55-3-52-51-52-51s-2-94,2-138S85,.07,85,.07,159.5-3.43,163.5,40.57Z"/><path class="cls-2" d="M2.5,41.07C6.5-2.93,85,.57,85,.57s74.5-3.5,78.5,40.5Z"/><path class="cls-3" d="M157.21,82.08c3.68,32,1.84,100.41,1.84,100.41s2.76,34.92-47.93,37.11c-11.51.49-19.17.76-24.13.88a37.79,37.79,0,0,1-4,.08,37.79,37.79,0,0,1-4-.08c-5-.12-12.62-.39-24.13-.88C4.19,217.41,7,182.49,7,182.49S5.11,114.1,8.79,82.08,84.84,52.61,84.84,52.61,153.52,50.07,157.21,82.08Z"/><path class="cls-4" d="M153.56,84c3.5,30.83,1.75,96.71,1.75,96.71s2.63,33.64-45.58,35.74c-10.94.48-18.22.74-22.94.86-.48.06-1.63.09-3.79.07s-3.31,0-3.79-.07c-4.72-.12-12-.38-22.94-.86-48.21-2.1-45.58-35.74-45.58-35.74S8.94,114.83,12.44,84,84.75,55.61,84.75,55.61,150.05,53.16,153.56,84Z"/>
<rect class="oximeterValuesContainer" x="27" y="80.57" width="112" height="94">
	<text fill="red" id="oxiVal"> old value</text>
</rect>

<text class="cls-6" transform="translate(60.87 200.57)">NONIN</text></g>
</g></svg>